<svg xmlns="http://www.w3.org/2000/svg" width="40" height="40" fill="none" viewBox="0 0 40 40"><g clip-path="url(#a)"><path fill="#FF820A" d="M25.093 1.054 21.16 0l-3.315 12.37-2.992-11.168-3.933 1.054 3.233 12.066L6.1 6.269l-2.88 2.88 8.834 8.832-11-2.947L0 18.967l12.019 3.22a8.144 8.144 0 1 1 15.869-.011l10.922 2.926 1.054-3.933-12.066-3.233 11-2.947-1.054-3.934-12.066 3.234 8.053-8.053-2.88-2.88-8.71 8.711z"/><path fill="#FF820A" d="M27.877 22.221a8.1 8.1 0 0 1-2.026 3.733l7.913 7.913 2.88-2.88zm-2.106 3.816a8.14 8.14 0 0 1-3.639 2.151l2.88 10.746 3.933-1.054zm-3.786 2.19a8.2 8.2 0 0 1-2.033.256 8.2 8.2 0 0 1-2.173-.293l-2.881 10.756L18.83 40l3.154-11.773Zm-4.345-.077a8.14 8.14 0 0 1-3.574-2.183L6.133 33.9l2.88 2.88zM14 25.897a8.1 8.1 0 0 1-1.976-3.686L1.066 25.147 2.12 29.08z"/></g><defs><clipPath id="a"><path fill="#fff" d="M0 0h196.864v40H0z"/></clipPath></defs></svg>